Coordinates
version=1
nRows=17
nColumns=36
inDegrees=yes

Units are S.I. units (second, meters, Newtons, ...)
If the header above contains a line with 'inDegrees', this indicates whether rotational values are in degrees (yes) or radians (no).

endheader
time	pelvis_tilt	pelvis_list	pelvis_rotation	pelvis_tx	pelvis_ty	pelvis_tz	hip_flexion_r	hip_adduction_r	hip_rotation_r	knee_angle_r	knee_angle_r_beta	ankle_angle_r	subtalar_angle_r	mtp_angle_r	hip_flexion_l	hip_adduction_l	hip_rotation_l	knee_angle_l	knee_angle_l_beta	ankle_angle_l	subtalar_angle_l	mtp_angle_l	lumbar_extension	lumbar_bending	lumbar_rotation	arm_flex_r	arm_add_r	arm_rot_r	elbow_flex_r	pro_sup_r	arm_flex_l	arm_add_l	arm_rot_l	elbow_flex_l	pro_sup_l
      2.50000000	     -0.38411203	      0.58073042	     11.54974332	      0.31986360	      1.21263171	     -0.00984330	     25.06280950	     -6.12752668	     -4.31424010	      8.01873979	      0.13995341	    -25.44698610	     -5.18457320	     -7.49999987	    -13.84338038	     -0.79573614	     -0.56178663	     14.12144660	      0.24646574	     10.64015076	     11.18121059	     -7.49999987	     -4.23319101	     -3.53898235	    -15.34798235	    -20.47761949	     -4.77763299	    -34.50832732	     50.75894017	     94.71624174	     -6.15981474	    -19.94941546	    -40.76115086	     43.91399445	     87.34864309
      2.51666670	      0.20386399	      0.71335150	     10.97026560	      0.33618471	      1.21875202	     -0.00737848	     24.37231491	     -5.79264716	     -4.45900391	      7.72380758	      0.13480587	    -27.75371162	     -4.93432244	     -7.49999987	    -13.10858811	     -0.66485268	     -0.04292836	     17.42809510	      0.30417764	      7.46195121	      8.27615917	     -7.49999987	     -5.07953485	     -3.30865230	    -14.86913378	    -22.22510726	     -6.16703026	    -39.32108828	     51.63814636	     96.92681424	     -7.95158635	    -21.88222489	    -46.74976850	     45.47442460	     85.01884292
      2.53333330	      1.32859851	      1.71478696	      9.53745951	      0.35397910	      1.21891488	      0.00039895	     22.93738531	     -5.70267900	     -3.93955655	      7.38694266	      0.12892647	    -29.62810143	     -5.37250517	     -7.49999987	    -10.95858362	      0.37074146	      0.54673820	     23.74393896	      0.41440991	      1.93531211	      2.97788797	     -7.49999987	     -6.69202375	     -4.15613373	    -13.43243981	    -23.87784347	     -7.39241867	    -43.73216782	     51.29610171	     95.32956295	    -10.11079167	    -24.17783167	    -52.16280136	     45.78018902	     82.56641621
      2.55000000	      2.19843471	      2.57821202	      8.19004054	      0.36900930	      1.21548291	      0.00239369	     21.78780760	     -5.72880267	     -4.07633512	      6.97969639	      0.12181868	    -30.83069857	     -5.33223832	     -7.49999987	     -7.35886509	      1.60293019	      1.61708377	     31.35353794	      0.54722247	     -5.34987600	     -2.13205738	     -7.49999987	     -8.61861556	     -4.81738489	    -11.96591330	    -25.73659587	     -8.98357380	    -46.67281205	     50.65905696	     93.44782287	    -12.66900621	    -26.54555730	    -55.87782966	     45.26254776	     80.64197039
      2.56666670	      2.77021833	      3.48463442	      6.92774299	      0.38678797	      1.21055271	      0.00687361	     20.80062086	     -5.94878218	     -3.85421399	      6.41480961	      0.11195955	    -31.86424918	     -4.60769495	     -7.49999987	     -2.87184918	      3.03055606	      2.35395715	     38.67390109	      0.67498691	    -10.82209288	     -5.70401281	     -7.49999987	    -10.26482937	     -5.72266427	    -10.69889111	    -27.05473969	    -10.13144517	    -50.30911210	     49.53133719	     92.05411585	    -15.95004025	    -28.07683924	    -60.76181638	     44.66705669	     78.41516517
      2.58333330	      2.80787333	      4.12288853	      6.40106985	      0.40419738	      1.20913748	      0.00970744	     19.95833274	     -6.37411937	     -4.91918275	      5.37189269	      0.09375721	    -33.47541341	     -3.30362188	     -7.49999987	      1.88515458	      4.32315189	      2.85638201	     43.87773818	      0.76581100	    -15.46998592	     -5.72871803	     -7.49999987	    -11.65352991	     -6.35464332	     -9.40992612	    -29.22839003	    -10.98611573	    -52.53630674	     48.25931141	     91.34146039	    -19.33418010	    -29.33001367	    -63.51170071	     43.52425214	     77.28280777
      2.60000000	      3.01423499	      4.99062347	      5.79367089	      0.42085351	      1.19640049	      0.01252180	     19.17367563	     -7.09826817	     -5.48647255	      4.32642666	      0.07551039	    -34.71828336	     -1.32007940	     -7.49999987	      6.29306799	      5.65315498	      2.28071410	     45.94902790	      0.80196182	    -16.25500607	     -8.66592450	     -7.49999987	    -13.33725374	     -7.48814386	     -9.48757237	    -29.91720111	    -12.19521193	    -54.21333770	     45.99958894	     88.13336146	    -24.35783359	    -29.32901529	    -67.40998836	     42.99906946	     65.15254227
      2.61666670	      2.86313366	      5.82622689	      5.54442669	      0.43711516	      1.18962889	      0.01362223	     18.44739622	     -8.02094535	     -6.82526207	      3.25274616	      0.05677113	    -35.90160962	      0.59567503	     -7.49999987	     10.24103956	      6.98028339	      1.47278862	     46.16198303	      0.80567859	    -17.32223686	     -9.85428075	     -7.49999987	    -14.43402894	     -8.44207493	     -8.58076317	    -32.11193270	    -12.32336603	    -56.46040268	     44.78788940	     87.56906287	    -27.78429053	    -29.61078215	    -69.58551826	     40.35227074	     64.50969471
      2.63333330	      2.72448772	      6.16874088	      5.46268180	      0.45543802	      1.16864946	      0.01587158	     17.82499248	     -8.40502231	     -7.44830796	      2.74172582	      0.04785214	    -36.55250139	      1.39487375	     -7.49999987	     13.36873439	      7.84861417	      0.57702848	     45.25385900	      0.78982884	    -16.58386741	    -12.73868439	     -7.49999987	    -15.45608984	     -8.82883910	     -7.39083320	    -34.92185428	    -12.12440279	    -58.13894246	     44.39750176	     85.65109890	    -31.32959851	    -29.32426323	    -71.26760051	     38.81737074	     63.75003208
      2.65000000	      2.04295456	      5.63404569	      5.08464581	      0.46746591	      1.15375590	      0.02011115	     17.99038180	     -7.66969061	     -7.86815628	      2.30585379	      0.04024474	    -36.70676507	      1.44947686	     -7.49999987	     15.58889742	      7.46227190	      1.25723425	     39.43938890	      0.68834719	    -17.22736152	    -12.30859249	     -7.49999987	    -16.15553614	     -8.24108232	     -5.94702813	    -37.71724030	    -11.88886559	    -59.09479536	     43.87189607	     85.35302491	    -34.87875132	    -27.95066826	    -72.34336170	     37.51840524	     63.45453031
      2.66666670	      1.36770556	      4.06700931	      3.98707693	      0.48397353	      1.13110216	      0.01773505	     18.37904991	     -5.92434406	     -7.04097981	      2.10266592	      0.03669844	    -37.28953194	      2.16580480	     -7.49999987	     16.85858065	      5.59314389	      4.35066912	     28.65781913	      0.50017330	    -19.04821629	     -9.93319721	     -7.49999987	    -16.52031120	     -6.46070631	     -4.03060163	    -40.43101355	    -12.17036991	    -59.98235367	     43.64529824	     84.96173684	    -38.28686293	    -25.12732731	    -73.47220828	     35.94998186	     63.08715300
      2.68333330	      1.10503478	      2.03902700	      3.74003980	      0.49863837	      1.10279970	      0.02132620	     18.49699812	     -3.68347529	     -5.40593193	      2.50682236	      0.04375230	    -37.21715442	      2.65888776	     -7.49999987	     17.37638571	      2.72075075	      6.21176845	     20.22367244	      0.35296967	    -18.64378271	     -6.65302798	     -7.49999987	    -17.05345729	     -4.49260799	     -2.69672039	    -42.50444786	    -11.42099106	    -60.94304585	     43.21365263	     82.89264007	    -39.12715532	    -22.27379117	    -77.27923075	     31.76961157	     60.65533203
      2.70000000	      0.92614199	      0.74760639	      3.70299207	      0.51107334	      1.06833286	      0.02085281	     18.96606507	     -2.54763646	     -3.65483376	      3.91631045	      0.06835251	    -38.70496794	      1.77512321	     -7.49999987	     18.34427649	      0.83878459	      7.23659950	     15.14247493	      0.26428604	    -16.70587363	     -3.68455988	     -7.49999987	    -17.75979528	     -2.95413716	     -1.45224965	    -43.96622581	    -10.76867913	    -60.64368995	     42.76388417	     77.91393825	    -40.68761489	    -18.90990698	    -74.69563204	     33.57815177	     54.54797598
      2.71666670	      0.58108988	      0.04113477	      4.06807738	      0.52410107	      1.03742915	      0.02188553	     19.64753673	     -2.08928895	     -2.08352251	      6.01231412	      0.10493468	    -38.68395357	      1.55983897	     -7.49999987	     19.68302123	     -0.24813684	      8.20459855	     12.05804048	      0.21045251	    -17.68552246	     -2.20724251	     -7.49999987	    -18.53779580	     -1.75027177	     -1.36991209	    -44.29786200	     -9.59130228	    -60.75594251	     42.76352484	     77.57709160	    -40.04084333	    -15.91565749	    -74.15801841	     34.57256036	     54.67489349
      2.73333330	      0.35030605	     -0.53525821	      4.52698768	      0.53962263	      1.00848580	      0.02369774	     20.36467142	     -1.61976206	      1.16831809	      8.86421300	      0.15470970	    -38.07039253	     -1.85860640	     -7.49999987	     20.49187446	     -0.99075882	      7.33204841	     10.42463481	      0.18194420	    -19.43046713	     -1.52679861	     -7.49999987	    -19.18406811	     -1.04853076	     -1.25144812	    -42.64963118	     -7.87746489	    -61.97127284	     41.11888122	     77.16253795	    -38.98340862	    -12.40604604	    -73.09853286	     39.90918307	     54.90321669
      2.75000000	      0.58336715	     -1.58167371	      4.99167214	      0.55263337	      0.97556897	      0.02470249	     21.69476248	     -0.37224702	      3.63448227	     14.06810037	      0.24553467	    -31.67178640	     -5.79032916	     -7.49999987	     21.81238616	     -1.99511258	      6.88647815	     12.27334730	      0.21421032	    -18.03889895	     -3.55919568	     -7.49999987	    -20.58222817	      0.21772064	     -1.24314680	    -39.77405905	     -6.43392681	    -61.99805515	     39.10561197	     74.58437638	    -36.21698254	     -9.40502324	    -72.47471353	     42.80297651	     55.46689090
      2.76666670	      0.78965404	     -1.68206269	      5.20671019	      0.56509317	      0.94094298	      0.02387654	     24.67824929	      0.21183072	      6.89571633	     22.68149146	      0.39586671	    -21.05348188	    -10.17806017	     -7.49999987	     24.93066576	     -1.73037856	      7.13525339	     19.26069440	      0.33616253	    -13.31817331	     -9.25646731	     -7.49999987	    -22.27909683	      0.15112877	     -2.22237033	    -34.11116464	     -6.83164205	    -59.79701678	     35.14121346	     74.90280045	    -32.67939989	     -6.60829940	    -73.03776668	     44.57932288	     55.72598573
